<svg xmlns="http://www.w3.org/2000/svg" viewBox="0 0 800 600">
  <rect width="800" height="600" fill="#f4f7f9"/>
  <!-- Server racks -->
  <rect x="200" y="150" width="120" height="300" fill="#1e293b" rx="8"/>
  <rect x="220" y="180" width="80" height="20" fill="#0ea5e9"/>
  <rect x="220" y="220" width="80" height="20" fill="#0ea5e9"/>
  <rect x="220" y="260" width="80" height="20" fill="#0ea5e9"/>
  <rect x="220" y="300" width="80" height="20" fill="#0ea5e9"/>
  
  <rect x="340" y="120" width="120" height="360" fill="#1e293b" rx="8"/>
  <rect x="360" y="150" width="80" height="20" fill="#3b82f6"/>
  <rect x="360" y="190" width="80" height="20" fill="#3b82f6"/>
  <rect x="360" y="230" width="80" height="20" fill="#3b82f6"/>
  <rect x="360" y="270" width="80" height="20" fill="#3b82f6"/>
  <rect x="360" y="310" width="80" height="20" fill="#3b82f6"/>
  <rect x="360" y="350" width="80" height="20" fill="#3b82f6"/>
  
  <rect x="480" y="150" width="120" height="300" fill="#1e293b" rx="8"/>
  <rect x="500" y="180" width="80" height="20" fill="#0ea5e9"/>
  <rect x="500" y="220" width="80" height="20" fill="#0ea5e9"/>
  <rect x="500" y="260" width="80" height="20" fill="#0ea5e9"/>
  <rect x="500" y="300" width="80" height="20" fill="#0ea5e9"/>
  
  <!-- Connections -->
  <path d="M260 450 L260 500 L540 500 L540 450" fill="none" stroke="#3b82f6" stroke-width="4"/>
  <path d="M400 480 L400 500" fill="none" stroke="#3b82f6" stroke-width="4"/>
</svg>
